<svg width="37" height="38" viewBox="0 0 37 38" fill="none" xmlns="http://www.w3.org/2000/svg">
<path d="M5.00655 33.2454L5.00638 33.2453L4.99971 33.2534C4.48857 33.8765 4.32499 34.6322 4.4896 35.4922L4.49568 35.5239L4.50963 35.5531L4.61983 35.7834C4.78701 36.2156 5.04028 36.57 5.38218 36.838L5.53638 36.6412L5.38218 36.838C5.73902 37.1176 6.17775 37.25 6.68102 37.25C9.94056 37.25 13.1353 35.6832 16.2624 32.6071C16.998 32.7521 17.7342 32.8248 18.4707 32.8248C21.7899 32.8248 24.8441 32.0985 27.6291 30.6435C30.4104 29.1905 32.6179 27.2496 34.2454 24.8202C35.8748 22.3881 36.7099 19.7097 36.7487 16.7907C36.7875 13.8681 35.9706 11.1864 34.3011 8.75228C32.6358 6.32424 30.4099 4.38405 27.6291 2.93124C24.8441 1.47626 21.7899 0.75 18.4707 0.75C15.2269 0.75 12.1924 1.4767 9.37085 2.93059C6.5514 4.38342 4.32409 6.32433 2.69603 8.75454C1.06606 11.1876 0.25 13.8672 0.25 16.7874C0.25 19.2227 0.852587 21.5364 2.05507 23.725C3.23292 25.8689 4.87529 27.6994 6.97784 29.2166C6.66699 30.7819 6.00933 32.1228 5.00655 33.2454ZM15.3169 29.34L15.1811 29.3116L15.0851 29.4119L14.6273 29.8903C12.551 32.0598 10.4615 33.3814 8.36009 33.8851C9.33197 32.3074 9.92323 30.5642 10.1341 28.6586L10.2481 27.8246L10.2689 27.673L10.1433 27.5856L9.45657 27.1072L9.45667 27.107L9.44888 27.102C7.49369 25.8448 5.97677 24.3167 4.89197 22.5187C3.80819 20.7224 3.26819 18.8134 3.26819 16.7874C3.26819 14.4467 3.93921 12.3033 5.28439 10.3512C6.63081 8.39719 8.48421 6.8496 10.8528 5.71034C13.2224 4.57064 15.7809 3.98038 18.5315 3.941C21.2785 3.90169 23.8138 4.4715 26.1414 5.64835C28.4738 6.82759 30.33 8.39646 31.7161 10.3538C33.0986 12.3059 33.7877 14.4483 33.7877 16.7874C33.7877 19.1265 33.0986 21.2689 31.7161 23.221C30.3305 25.1775 28.4754 26.7259 26.1445 27.8651C23.8155 29.0033 21.2589 29.5739 18.4707 29.5739C17.6437 29.5739 16.7784 29.5349 15.8746 29.4565L15.3169 29.34Z" fill="#1A1A1A" stroke="black" stroke-width="0.5"/>
</svg>
