<svg width="37" height="37" viewBox="0 0 37 37" fill="none" xmlns="http://www.w3.org/2000/svg">
<path fill-rule="evenodd" clip-rule="evenodd" d="M6.12913 4C5.0895 4 4.49154 4.71396 4.50013 5.42856C4.55492 9.98676 5.66616 18.1985 12.0533 24.5857C18.3701 30.9025 26.4616 32.5369 31.0879 32.9204C31.851 32.9836 32.6389 32.3739 32.6389 31.2755V26.4724C32.6389 25.7148 32.2108 25.0222 31.5332 24.6835L28.3217 23.0782C27.5516 22.6932 26.6216 22.8443 26.0129 23.4532L25.3449 24.1215C23.3601 26.1072 20.1256 26.5183 17.7824 24.6181C16.7498 23.7806 15.5095 22.7011 14.2226 21.4142C12.8073 19.999 11.7848 18.6534 11.0689 17.5524C9.52746 15.1821 10.4862 12.3982 12.3931 10.9519C12.9283 10.5459 13.1455 9.84405 12.933 9.20673L11.6533 5.36753C11.381 4.55085 10.6168 4 9.7559 4H6.12913ZM0.500417 5.47665C0.46122 2.21619 3.19342 0 6.12913 0H9.7559C12.3385 0 14.6313 1.65256 15.448 4.1026L16.7277 7.9418C17.4821 10.2049 16.711 12.6972 14.8103 14.1388C14.5315 14.3503 14.3816 14.6102 14.3304 14.8264C14.2838 15.0236 14.3106 15.2001 14.4222 15.3717C15.0013 16.2623 15.8515 17.3862 17.051 18.5858C18.2225 19.7572 19.3561 20.7442 20.3019 21.5113C20.894 21.9914 21.829 21.9808 22.5159 21.2937L23.1839 20.6254C25.0098 18.7987 27.7999 18.3454 30.1102 19.5003L33.3216 21.1056C35.3547 22.1218 36.6389 24.1996 36.6389 26.4724V31.2755C36.6389 34.3742 34.1771 37.1901 30.7575 36.9067C25.703 36.4877 16.5031 34.6924 9.22491 27.4141C1.76664 19.9558 0.560663 10.4881 0.500417 5.47665Z" fill="#1A1A1A"/>
</svg>
